<svg width="21" height="20" viewBox="0 0 21 20" fill="none" xmlns="http://www.w3.org/2000/svg">
<path d="M14.3665 3.21806V1.95641C14.3665 1.62483 14.0915 1.34985 13.7599 1.34985C13.4283 1.34985 13.1534 1.62483 13.1534 1.95641V3.16954L7.89649 3.16954V1.95641C7.89649 1.62483 7.62151 1.34985 7.28993 1.34985C6.95834 1.34985 6.68336 1.62483 6.68336 1.95641V3.21806C4.49974 3.42025 3.44028 4.72234 3.27853 6.65524C3.26236 6.88978 3.45646 7.08388 3.68291 7.08388L17.3669 7.08388C17.6015 7.08388 17.7956 6.88169 17.7713 6.65524C17.6096 4.72234 16.5501 3.42025 14.3665 3.21806Z" fill="#898989"/>
<path d="M16.9948 8.297L4.05484 8.297C3.61003 8.297 3.24609 8.66093 3.24609 9.10575L3.24609 14.0876C3.24609 16.5139 4.45922 18.1314 7.28984 18.1314H13.7598C16.5904 18.1314 17.8036 16.5139 17.8036 14.0876V9.10575C17.8036 8.66093 17.4396 8.297 16.9948 8.297ZM8.26842 15.0662C8.22799 15.0986 8.18755 15.139 8.14711 15.1633C8.09859 15.1956 8.05006 15.2199 8.00154 15.2361C7.95301 15.2603 7.90449 15.2765 7.85596 15.2846C7.79935 15.2927 7.75082 15.3008 7.69421 15.3008C7.58907 15.3008 7.48394 15.2765 7.38689 15.2361C7.28175 15.1956 7.20087 15.139 7.12 15.0662C6.97443 14.9126 6.88546 14.7023 6.88546 14.492C6.88546 14.2817 6.97443 14.0715 7.12 13.9178C7.20087 13.845 7.28175 13.7884 7.38689 13.748C7.53246 13.6833 7.69421 13.6671 7.85596 13.6994C7.90449 13.7075 7.95301 13.7237 8.00154 13.748C8.05006 13.7641 8.09859 13.7884 8.14711 13.8208C8.18755 13.8531 8.22799 13.8855 8.26842 13.9178C8.414 14.0715 8.50296 14.2817 8.50296 14.492C8.50296 14.7023 8.414 14.9126 8.26842 15.0662ZM8.26842 12.2356C8.11476 12.3812 7.90449 12.4701 7.69421 12.4701C7.48394 12.4701 7.27366 12.3812 7.12 12.2356C6.97443 12.0819 6.88546 11.8717 6.88546 11.6614C6.88546 11.4511 6.97443 11.2408 7.12 11.0872C7.34645 10.8607 7.7023 10.7879 8.00154 10.9173C8.10667 10.9578 8.19564 11.0144 8.26842 11.0872C8.414 11.2408 8.50296 11.4511 8.50296 11.6614C8.50296 11.8717 8.414 12.0819 8.26842 12.2356ZM11.099 15.0662C10.9454 15.2118 10.7351 15.3008 10.5248 15.3008C10.3146 15.3008 10.1043 15.2118 9.95062 15.0662C9.80505 14.9126 9.71608 14.7023 9.71608 14.492C9.71608 14.2817 9.80505 14.0715 9.95062 13.9178C10.2499 13.6186 10.7998 13.6186 11.099 13.9178C11.2446 14.0715 11.3336 14.2817 11.3336 14.492C11.3336 14.7023 11.2446 14.9126 11.099 15.0662ZM11.099 12.2356C11.0586 12.268 11.0182 12.3003 10.9777 12.3327C10.9292 12.365 10.8807 12.3893 10.8322 12.4054C10.7836 12.4297 10.7351 12.4459 10.6866 12.454C10.63 12.4621 10.5814 12.4701 10.5248 12.4701C10.3146 12.4701 10.1043 12.3812 9.95062 12.2356C9.80505 12.0819 9.71608 11.8717 9.71608 11.6614C9.71608 11.4511 9.80505 11.2408 9.95062 11.0872C10.0234 11.0144 10.1124 10.9578 10.2175 10.9173C10.5167 10.7879 10.8726 10.8607 11.099 11.0872C11.2446 11.2408 11.3336 11.4511 11.3336 11.6614C11.3336 11.8717 11.2446 12.0819 11.099 12.2356ZM13.9297 15.0662C13.776 15.2118 13.5657 15.3008 13.3555 15.3008C13.1452 15.3008 12.9349 15.2118 12.7812 15.0662C12.6357 14.9126 12.5467 14.7023 12.5467 14.492C12.5467 14.2817 12.6357 14.0715 12.7812 13.9178C13.0805 13.6186 13.6304 13.6186 13.9297 13.9178C14.0752 14.0715 14.1642 14.2817 14.1642 14.492C14.1642 14.7023 14.0752 14.9126 13.9297 15.0662ZM13.9297 12.2356C13.8892 12.268 13.8488 12.3003 13.8084 12.3327C13.7598 12.365 13.7113 12.3893 13.6628 12.4054C13.6143 12.4297 13.5657 12.4459 13.5172 12.454C13.4606 12.4621 13.404 12.4701 13.3555 12.4701C13.1452 12.4701 12.9349 12.3812 12.7812 12.2356C12.6357 12.0819 12.5467 11.8717 12.5467 11.6614C12.5467 11.4511 12.6357 11.2408 12.7812 11.0872C12.8621 11.0144 12.943 10.9578 13.0481 10.9173C13.1937 10.8526 13.3555 10.8365 13.5172 10.8688C13.5657 10.8769 13.6143 10.8931 13.6628 10.9173C13.7113 10.9335 13.7598 10.9578 13.8084 10.9901C13.8488 11.0225 13.8892 11.0548 13.9297 11.0872C14.0752 11.2408 14.1642 11.4511 14.1642 11.6614C14.1642 11.8717 14.0752 12.0819 13.9297 12.2356Z" fill="#898989"/>
</svg>
