<svg width="21" height="20" viewBox="0 0 21 20" fill="none" xmlns="http://www.w3.org/2000/svg">
<path d="M6.67522 2.04639L5.1386 2.04639C3.36744 2.04639 2.43738 2.97645 2.43738 4.73952L2.43738 6.27614C2.43738 8.03921 3.36744 8.96928 5.13051 8.96928H6.66713C8.43021 8.96928 9.36027 8.03921 9.36027 6.27614V4.73952C9.36835 2.97645 8.43829 2.04639 6.67522 2.04639Z" fill="white"/>
<path d="M15.9192 2.04639L14.3826 2.04639C12.6195 2.04639 11.6895 2.97645 11.6895 4.73952V6.27614C11.6895 8.03921 12.6195 8.96928 14.3826 8.96928H15.9192C17.6823 8.96928 18.6123 8.03921 18.6123 6.27614V4.73952C18.6123 2.97645 17.6823 2.04639 15.9192 2.04639Z" fill="white"/>
<path d="M15.9192 11.2903H14.3826C12.6195 11.2903 11.6895 12.2204 11.6895 13.9835V15.5201C11.6895 17.2832 12.6195 18.2132 14.3826 18.2132H15.9192C17.6823 18.2132 18.6123 17.2832 18.6123 15.5201V13.9835C18.6123 12.2204 17.6823 11.2903 15.9192 11.2903Z" fill="white"/>
<path d="M6.67522 11.2903H5.1386C3.36744 11.2903 2.43738 12.2204 2.43738 13.9835L2.43738 15.5201C2.43738 17.2913 3.36744 18.2213 5.13051 18.2213H6.66713C8.43021 18.2213 9.36027 17.2913 9.36027 15.5282V13.9916C9.36835 12.2204 8.43829 11.2903 6.67522 11.2903Z" fill="white"/>
</svg>
