<svg width="13" height="13" viewBox="0 0 13 13" fill="none" xmlns="http://www.w3.org/2000/svg">
<path d="M10.175 3.88763C10.3195 4.02424 10.4038 4.21264 10.4095 4.41141C10.4151 4.61019 10.3415 4.80306 10.205 4.94763L5.955 9.44763C5.88612 9.52043 5.80335 9.57869 5.71157 9.61896C5.6198 9.65923 5.52088 9.6807 5.42067 9.6821C5.32046 9.68349 5.22098 9.66479 5.12812 9.6271C5.03525 9.5894 4.95089 9.53348 4.88 9.46263L2.63 7.21263C2.49752 7.07045 2.4254 6.8824 2.42883 6.6881C2.43226 6.4938 2.51097 6.30842 2.64838 6.171C2.78579 6.03359 2.97118 5.95488 3.16548 5.95145C3.35978 5.94802 3.54783 6.02015 3.69 6.15263L5.395 7.85663L9.115 3.91763C9.25161 3.77312 9.44002 3.68879 9.63879 3.68316C9.83757 3.67754 10.0304 3.75108 10.175 3.88763Z" fill="white"/>
</svg>
