<svg width="119" height="39" viewBox="0 0 119 39" fill="none" xmlns="http://www.w3.org/2000/svg">
<g clip-path="url(#clip0_2_140)">
<path d="M115.293 23.8345L118.594 26.0326C117.523 27.6089 114.96 30.3132 110.53 30.3132C105.028 30.3132 100.93 26.0615 100.93 20.653C100.93 14.8974 105.071 10.9928 110.067 10.9928C115.091 10.9928 117.552 14.9841 118.348 17.1389L118.783 18.2379L105.839 23.5886C106.823 25.5265 108.358 26.5098 110.53 26.5098C112.702 26.5098 114.207 25.4397 115.293 23.8345ZM105.144 20.3493L113.788 16.7629C113.31 15.5626 111.891 14.7094 110.197 14.7094C108.039 14.7094 105.042 16.6183 105.144 20.3493Z" fill="white" fill-opacity="0.6"/>
<path d="M94.6901 1.14465H98.8599V29.4311H94.6901V1.14465Z" fill="white" fill-opacity="0.6"/>
<path d="M88.1167 11.7448H92.1418V28.9249C92.1418 36.0544 87.9285 38.99 82.9478 38.99C78.2567 38.99 75.4333 35.8375 74.3764 33.2778L78.0685 31.7449C78.7345 33.3212 80.3416 35.1867 82.9478 35.1867C86.1476 35.1867 88.1167 33.2055 88.1167 29.5034V28.1151H87.9719C87.0163 29.272 85.192 30.3132 82.8754 30.3132C78.0395 30.3132 73.609 26.105 73.609 20.682C73.609 15.23 78.0395 10.9784 82.8754 10.9784C85.1775 10.9784 87.0163 12.0051 87.9719 13.1331H88.1167V11.7448ZM88.4063 20.682C88.4063 17.2691 86.1331 14.7817 83.2374 14.7817C80.3127 14.7817 77.8513 17.2691 77.8513 20.682C77.8513 24.0515 80.3127 26.4954 83.2374 26.4954C86.1331 26.5099 88.4063 24.0515 88.4063 20.682Z" fill="white" fill-opacity="0.6"/>
<path d="M50.7181 20.6097C50.7181 26.1773 46.3745 30.2699 41.0463 30.2699C35.7181 30.2699 31.3745 26.1629 31.3745 20.6097C31.3745 15.0132 35.7181 10.9351 41.0463 10.9351C46.3745 10.9351 50.7181 15.0132 50.7181 20.6097ZM46.4903 20.6097C46.4903 17.139 43.971 14.7529 41.0463 14.7529C38.1216 14.7529 35.6023 17.139 35.6023 20.6097C35.6023 24.0515 38.1216 26.4666 41.0463 26.4666C43.971 26.4666 46.4903 24.0515 46.4903 20.6097Z" fill="white" fill-opacity="0.6"/>
<path d="M71.8426 20.653C71.8426 26.2206 67.499 30.3132 62.1708 30.3132C56.8426 30.3132 52.499 26.2206 52.499 20.653C52.499 15.0564 56.8426 10.9928 62.1708 10.9928C67.499 10.9928 71.8426 15.042 71.8426 20.653ZM67.6004 20.653C67.6004 17.1823 65.081 14.7961 62.1563 14.7961C59.2316 14.7961 56.7123 17.1823 56.7123 20.653C56.7123 24.0948 59.2316 26.5098 62.1563 26.5098C65.0955 26.5098 67.6004 24.0803 67.6004 20.653Z" fill="white" fill-opacity="0.6"/>
<path d="M15.4769 26.076C9.41029 26.076 4.66126 21.1881 4.66126 15.1288C4.66126 9.06949 9.41029 4.18155 15.4769 4.18155C18.7491 4.18155 21.1381 5.46861 22.9045 7.1172L25.8147 4.21047C23.3533 1.85327 20.0666 0.0600586 15.4769 0.0600586C7.16608 0.0600586 0.172852 6.82798 0.172852 15.1288C0.172852 23.4296 7.16608 30.1975 15.4769 30.1975C19.9653 30.1975 23.3533 28.7225 26.0029 25.9748C28.7249 23.2561 29.5647 19.4383 29.5647 16.3436C29.5647 15.3746 29.4489 14.3768 29.3186 13.6393H15.4769V17.6595H25.3369C25.0473 20.1758 24.251 21.8967 23.0782 23.0681C21.6593 24.4998 19.4151 26.076 15.4769 26.076Z" fill="white" fill-opacity="0.6"/>
</g>
<defs>
<clipPath id="clip0_2_140">
<rect width="119" height="39" fill="white"/>
</clipPath>
</defs>
</svg>
