<svg width="17" height="16" viewBox="0 0 17 16" fill="none" xmlns="http://www.w3.org/2000/svg">
<path d="M9.55687 2.27326L10.6956 4.5507C10.8509 4.86773 11.2649 5.17182 11.6143 5.23005L13.6782 5.57296C14.9981 5.79294 15.3087 6.75049 14.3576 7.69511L12.753 9.29967C12.4813 9.57141 12.3325 10.0955 12.4166 10.4707L12.876 12.457C13.2383 14.0292 12.4037 14.6374 11.0126 13.8157L9.07809 12.6705C8.72871 12.4635 8.15288 12.4635 7.79703 12.6705L5.8625 13.8157C4.47793 14.6374 3.63683 14.0228 3.99915 12.457L4.45852 10.4707C4.54263 10.0955 4.39382 9.57141 4.12208 9.29967L2.51752 7.69511C1.5729 6.75049 1.87699 5.79294 3.19687 5.57296L5.2608 5.23005C5.6037 5.17182 6.01778 4.86773 6.17306 4.5507L7.31178 2.27326C7.9329 1.03749 8.94222 1.03749 9.55687 2.27326Z" fill="#FFD928"/>
</svg>
