<svg width="23" height="23" viewBox="0 0 23 23" fill="none" xmlns="http://www.w3.org/2000/svg">
<circle cx="11.5" cy="11.5" r="11" fill="#171D26" stroke="#696B70"/>
<path opacity="0.5" d="M10.025 13.445V12.905C10.025 12.415 10.13 12 10.34 11.66C10.55 11.31 10.91 10.95 11.42 10.58C11.87 10.26 12.19 9.985 12.38 9.755C12.58 9.515 12.68 9.235 12.68 8.915C12.68 8.605 12.56 8.365 12.32 8.195C12.09 8.025 11.765 7.94 11.345 7.94C10.925 7.94 10.51 8.005 10.1 8.135C9.69 8.265 9.27 8.44 8.84 8.66L8.045 7.055C8.535 6.785 9.065 6.565 9.635 6.395C10.205 6.225 10.83 6.14 11.51 6.14C12.55 6.14 13.355 6.39 13.925 6.89C14.505 7.39 14.795 8.025 14.795 8.795C14.795 9.205 14.73 9.56 14.6 9.86C14.47 10.16 14.275 10.44 14.015 10.7C13.755 10.96 13.43 11.23 13.04 11.51C12.74 11.73 12.51 11.915 12.35 12.065C12.2 12.205 12.095 12.35 12.035 12.5C11.985 12.64 11.96 12.81 11.96 13.01V13.445H10.025ZM9.785 15.95C9.785 15.49 9.91 15.17 10.16 14.99C10.41 14.8 10.715 14.705 11.075 14.705C11.425 14.705 11.725 14.8 11.975 14.99C12.225 15.17 12.35 15.49 12.35 15.95C12.35 16.39 12.225 16.71 11.975 16.91C11.725 17.1 11.425 17.195 11.075 17.195C10.715 17.195 10.41 17.1 10.16 16.91C9.91 16.71 9.785 16.39 9.785 15.95Z" fill="white"/>
</svg>
