<svg width="17" height="17" viewBox="0 0 17 17" fill="none" xmlns="http://www.w3.org/2000/svg">
<g clip-path="url(#clip0_14_199)">
<path d="M11.3928 4.64979L11.3928 12.0903C11.3928 13.5201 10.2347 14.6783 8.80483 14.6783C7.37496 14.6783 6.21684 13.5201 6.21684 12.0903L6.21684 4.00279C6.21684 3.10993 6.94148 2.38529 7.83433 2.38529C8.72719 2.38529 9.45183 3.10993 9.45183 4.00279L9.45183 10.7963C9.45183 11.1521 9.16068 11.4433 8.80483 11.4433C8.44898 11.4433 8.15783 11.1521 8.15783 10.7963L8.15783 4.64979H7.18733L7.18733 10.7963C7.18733 11.6891 7.91197 12.4138 8.80483 12.4138C9.69769 12.4138 10.4223 11.6891 10.4223 10.7963L10.4223 4.00279C10.4223 2.57292 9.2642 1.41479 7.83433 1.41479C6.40447 1.41479 5.24634 2.57292 5.24634 4.00279L5.24634 12.0903C5.24634 14.0572 6.83796 15.6488 8.80483 15.6488C10.7717 15.6488 12.3633 14.0572 12.3633 12.0903L12.3633 4.64979H11.3928Z" fill="white"/>
</g>
<defs>
<clipPath id="clip0_14_199">
<rect width="15.528" height="15.528" fill="white" transform="translate(0.717285 0.767944)"/>
</clipPath>
</defs>
</svg>
