<svg width="28" height="28" viewBox="0 0 28 28" fill="none" xmlns="http://www.w3.org/2000/svg">
<path d="M18.1814 12.2157C18.4847 11.8394 18.4254 11.2886 18.0491 10.9854C17.6728 10.6822 17.122 10.7414 16.8188 11.1177L14.4604 14.0446C13.9761 14.6456 13.6705 15.0215 13.4162 15.2589C13.2967 15.3705 13.2204 15.4202 13.1765 15.4421C13.1439 15.4585 13.1322 15.4584 13.126 15.4584H13.1243C13.118 15.4584 13.1063 15.4585 13.0737 15.4421C13.0298 15.4202 12.9535 15.3705 12.834 15.2589C12.5797 15.0215 12.2741 14.6456 11.7899 14.0446L11.1814 13.2895C10.8782 12.9132 10.3274 12.854 9.95111 13.1572C9.57482 13.4604 9.51557 14.0113 9.81877 14.3875L10.4652 15.1898C10.8998 15.7292 11.2832 16.2052 11.6395 16.5379C12.0221 16.8952 12.4977 17.2084 13.1251 17.2084C13.7525 17.2084 14.2281 16.8952 14.6107 16.5379C14.967 16.2052 15.3504 15.7292 15.785 15.1898L18.1814 12.2157Z" fill="#FAFAFA"/>
<path fill-rule="evenodd" clip-rule="evenodd" d="M11.1568 1.45837C9.35805 1.45837 7.89986 2.91656 7.89986 4.71532C7.89986 5.54758 7.22518 6.22226 6.39292 6.22226H6.03258C4.19384 6.22226 2.55594 7.64489 2.6557 9.62094C2.77414 11.9671 3.29524 15.6238 5.19592 19.0876C5.72826 20.0578 6.43922 21.0108 7.20777 21.8987L7.26563 21.9656C8.37125 23.2431 9.2931 24.3083 10.2841 25.0343C11.3501 25.8152 12.4878 26.2042 14.0002 26.2042C15.5125 26.2042 16.6502 25.8152 17.7162 25.0343C18.7072 24.3083 19.6291 23.2431 20.7347 21.9656L20.7926 21.8987C21.5611 21.0108 22.2721 20.0578 22.8044 19.0876C24.7683 15.5087 25.258 11.4645 25.3546 8.94325C25.4299 6.97669 23.8037 5.54171 21.9547 5.54171H21.2671C20.6228 5.54171 20.1005 5.01937 20.1005 4.37504C20.1005 2.76421 18.7946 1.45837 17.1838 1.45837H11.1568ZM9.64986 4.71532C9.64986 3.88306 10.3245 3.20837 11.1568 3.20837H17.1838C17.8281 3.20837 18.3505 3.73071 18.3505 4.37504C18.3505 5.98587 19.6563 7.29171 21.2671 7.29171H21.9547C22.932 7.29171 23.6387 8.01866 23.6059 8.87626C23.5136 11.2851 23.0439 15.0135 21.2702 18.2458C20.8165 19.0727 20.1881 19.923 19.4694 20.7535C18.2909 22.115 17.4951 23.0269 16.682 23.6226C15.9265 24.176 15.1538 24.4542 14.0002 24.4542C12.8466 24.4542 12.0738 24.176 11.3184 23.6226C10.5052 23.0269 9.70944 22.115 8.53097 20.7535C7.81221 19.923 7.18388 19.0727 6.73012 18.2458C5.00522 15.1023 4.51483 11.7386 4.40347 9.5327C4.3611 8.69345 5.05242 7.97226 6.03258 7.97226H6.39292C8.19168 7.97226 9.64986 6.51408 9.64986 4.71532Z" fill="#FAFAFA"/>
</svg>
