<svg width="21" height="21" viewBox="0 0 21 21" fill="none" xmlns="http://www.w3.org/2000/svg">
<path fill-rule="evenodd" clip-rule="evenodd" d="M1.44364 9.04036C7.08077 6.07678 10.8397 4.123 12.7206 3.17903C18.0907 0.483813 19.2065 0.0156247 19.9338 0.000164837C20.0938 -0.00323539 20.4514 0.0446012 20.6831 0.271446C20.8787 0.46299 20.9326 0.721738 20.9583 0.903342C20.9841 1.08495 21.0162 1.49865 20.9907 1.8219C20.6997 5.51145 19.4405 14.465 18.7999 18.5974C18.5288 20.3459 17.9951 20.9322 17.4784 20.9896C16.3554 21.1143 15.5027 20.0941 14.4151 19.2338C12.7132 17.8876 11.7517 17.0496 10.0997 15.736C8.19056 14.2179 9.42819 13.3835 10.5162 12.0199C10.801 11.663 15.7486 6.23264 15.8444 5.74002C15.8564 5.67841 15.8675 5.44875 15.7544 5.32749C15.6414 5.20622 15.4745 5.24769 15.3541 5.28067C15.1834 5.32742 12.4646 7.49585 7.19761 11.786C6.42588 12.4254 5.72687 12.737 5.10058 12.7206C4.41015 12.7026 3.08204 12.2496 2.09472 11.8623C0.883743 11.3873 -0.0787216 11.1362 0.00508745 10.3295C0.0487404 9.90932 0.528258 9.47961 1.44364 9.04036Z" fill="white"/>
</svg>
