<svg width="21" height="20" viewBox="0 0 21 20" fill="none" xmlns="http://www.w3.org/2000/svg">
<path d="M14.5687 1.90039L6.48124 1.90039C4.2491 1.90039 2.4375 3.7039 2.4375 5.92796L2.4375 10.7643L2.4375 11.573C2.4375 13.7971 4.2491 15.6006 6.48124 15.6006H7.69437C7.91273 15.6006 8.20388 15.7462 8.34137 15.9241L9.55449 17.5335C10.0883 18.2452 10.9617 18.2452 11.4955 17.5335L12.7086 15.9241C12.8623 15.7219 13.1049 15.6006 13.3556 15.6006H14.5687C16.8009 15.6006 18.6125 13.7971 18.6125 11.573V5.92796C18.6125 3.7039 16.8009 1.90039 14.5687 1.90039ZM11.3337 11.4032L6.48124 11.4032C6.14966 11.4032 5.87468 11.1282 5.87468 10.7966C5.87468 10.465 6.14966 10.1901 6.48124 10.1901L11.3337 10.1901C11.6653 10.1901 11.9403 10.465 11.9403 10.7966C11.9403 11.1282 11.6653 11.4032 11.3337 11.4032ZM14.5687 7.35944L6.48124 7.35944C6.14966 7.35944 5.87468 7.08447 5.87468 6.75288C5.87468 6.4213 6.14966 6.14632 6.48124 6.14632L14.5687 6.14632C14.9003 6.14632 15.1753 6.4213 15.1753 6.75288C15.1753 7.08447 14.9003 7.35944 14.5687 7.35944Z" fill="white"/>
</svg>
