<svg width="28" height="28" viewBox="0 0 28 28" fill="none" xmlns="http://www.w3.org/2000/svg">
<path fill-rule="evenodd" clip-rule="evenodd" d="M11.6667 1.45837C8.60609 1.45837 6.125 3.93946 6.125 7.00004C6.125 10.0606 8.60609 12.5417 11.6667 12.5417C14.7272 12.5417 17.2083 10.0606 17.2083 7.00004C17.2083 3.93946 14.7272 1.45837 11.6667 1.45837ZM7.875 7.00004C7.875 4.90596 9.57259 3.20837 11.6667 3.20837C13.7607 3.20837 15.4583 4.90596 15.4583 7.00004C15.4583 9.09412 13.7607 10.7917 11.6667 10.7917C9.57259 10.7917 7.875 9.09412 7.875 7.00004Z" fill="#FAFAFA"/>
<path d="M26.3186 15.7504C26.6409 15.3903 26.6104 14.8371 26.2503 14.5148C25.8903 14.1925 25.3371 14.223 25.0148 14.5831L21.0841 18.9734C20.2876 19.8631 19.7512 20.459 19.2926 20.8445C18.8557 21.2117 18.5992 21.2917 18.375 21.2917C18.1508 21.2917 17.8943 21.2117 17.4574 20.8445C16.9988 20.459 16.4624 19.8631 15.6659 18.9734L14.6519 17.8408C14.3296 17.4808 13.7764 17.4502 13.4164 17.7726C13.0563 18.0949 13.0258 18.6481 13.3481 19.0081L14.4054 20.1891C15.1472 21.0177 15.766 21.7089 16.3314 22.1841C16.9295 22.6868 17.5746 23.0417 18.375 23.0417C19.1754 23.0417 19.8205 22.6868 20.4186 22.1841C20.984 21.7089 21.6027 21.0178 22.3445 20.1891L26.3186 15.7504Z" fill="#FAFAFA"/>
<path d="M8.16667 14.2917C5.10609 14.2917 2.625 16.7728 2.625 19.8334C2.625 22.894 5.10609 25.375 8.16667 25.375H15.1667C15.6499 25.375 16.0417 24.9833 16.0417 24.5C16.0417 24.0168 15.6499 23.625 15.1667 23.625H8.16667C6.07259 23.625 4.375 21.9275 4.375 19.8334C4.375 17.7393 6.07259 16.0417 8.16667 16.0417H15.1667C15.6499 16.0417 16.0417 15.65 16.0417 15.1667C16.0417 14.6835 15.6499 14.2917 15.1667 14.2917H8.16667Z" fill="#FAFAFA"/>
</svg>
