<svg width="161" height="34" viewBox="0 0 161 34" fill="none" xmlns="http://www.w3.org/2000/svg">
<path d="M9.37402 6.96707C9.37402 3.39541 12.2694 0.5 15.8411 0.5H152C156.694 0.5 160.5 4.30558 160.5 9V25C160.5 29.6944 156.694 33.5 152 33.5H15.6087C12.1654 33.5 9.37402 30.7086 9.37402 27.2653C9.37402 25.0501 8.35918 22.9571 6.61997 21.5851L0.826019 17.0147L6.31934 12.991C8.23941 11.5846 9.37402 9.34713 9.37402 6.96707Z" fill="#D9D9D9"/>
<path d="M9.37402 6.96707C9.37402 3.39541 12.2694 0.5 15.8411 0.5H152C156.694 0.5 160.5 4.30558 160.5 9V25C160.5 29.6944 156.694 33.5 152 33.5H15.6087C12.1654 33.5 9.37402 30.7086 9.37402 27.2653C9.37402 25.0501 8.35918 22.9571 6.61997 21.5851L0.826019 17.0147L6.31934 12.991C8.23941 11.5846 9.37402 9.34713 9.37402 6.96707Z" fill="#171D26"/>
<path d="M9.37402 6.96707C9.37402 3.39541 12.2694 0.5 15.8411 0.5H152C156.694 0.5 160.5 4.30558 160.5 9V25C160.5 29.6944 156.694 33.5 152 33.5H15.6087C12.1654 33.5 9.37402 30.7086 9.37402 27.2653C9.37402 25.0501 8.35918 22.9571 6.61997 21.5851L0.826019 17.0147L6.31934 12.991C8.23941 11.5846 9.37402 9.34713 9.37402 6.96707Z" stroke="#696B70"/>
</svg>
