<svg width="18" height="18" viewBox="0 0 18 18" fill="none" xmlns="http://www.w3.org/2000/svg">
<path d="M5.25 5.25H4.5C4.10218 5.25 3.72064 5.40804 3.43934 5.68934C3.15804 5.97064 3 6.35218 3 6.75L3 13.5C3 13.8978 3.15804 14.2794 3.43934 14.5607C3.72064 14.842 4.10218 15 4.5 15L11.25 15C11.6478 15 12.0294 14.842 12.3107 14.5607C12.592 14.2794 12.75 13.8978 12.75 13.5V12.75" stroke="white" stroke-width="2" stroke-linecap="round" stroke-linejoin="round"/>
<path d="M12 3.74996L14.25 5.99996M15.2888 4.93871C15.5841 4.64332 15.7501 4.2427 15.7501 3.82496C15.7501 3.40722 15.5841 3.00659 15.2888 2.71121C14.9934 2.41582 14.5927 2.24988 14.175 2.24988C13.7573 2.24988 13.3566 2.41582 13.0613 2.71121L6.75 8.99996V11.25H9L15.2888 4.93871Z" stroke="white" stroke-width="2" stroke-linecap="round" stroke-linejoin="round"/>
</svg>
