<svg width="28" height="28" viewBox="0 0 28 28" fill="none" xmlns="http://www.w3.org/2000/svg">
<path d="M19.3389 11.0602C19.6483 10.6889 19.5981 10.1372 19.2269 9.8278C18.8556 9.51843 18.3039 9.56859 17.9945 9.93984L13.9537 14.7888C13.5211 15.3079 13.2555 15.6234 13.0366 15.821C12.9351 15.9127 12.8749 15.9492 12.8461 15.9632C12.8402 15.966 12.836 15.9677 12.8334 15.9687C12.8334 15.9687 12.8334 15.9687 12.8334 15.9687C12.8307 15.9677 12.8266 15.966 12.8207 15.9632C12.7918 15.9492 12.7316 15.9127 12.6301 15.821C12.4113 15.6234 12.1456 15.3079 11.7131 14.7888L10.0056 12.7398C9.6962 12.3686 9.14446 12.3184 8.77322 12.6278C8.40198 12.9372 8.35182 13.4889 8.66119 13.8602L10.4059 15.9539C10.7891 16.4138 11.1346 16.8285 11.4573 17.1199C11.8084 17.4369 12.2506 17.7193 12.8334 17.7193C13.4161 17.7193 13.8584 17.4369 14.2095 17.1199C14.5321 16.8285 14.8776 16.4138 15.2608 15.9539L19.3389 11.0602Z" fill="#FAFAFA"/>
<path fill-rule="evenodd" clip-rule="evenodd" d="M18.1585 3.21605C16.9645 -0.967525 11.0356 -0.967525 9.84163 3.21605C9.46035 4.55207 8.08775 5.34454 6.74008 5.00673C2.52003 3.94893 -0.444447 9.08355 2.58167 12.2093C3.54806 13.2075 3.54806 14.7925 2.58167 15.7907C-0.444448 18.9164 2.52003 24.0511 6.74008 22.9933C8.08775 22.6555 9.46035 23.4479 9.84163 24.7839C11.0356 28.9675 16.9645 28.9675 18.1585 24.7839C18.5397 23.4479 19.9123 22.6555 21.26 22.9933C25.4801 24.0511 28.4445 18.9164 25.4184 15.7907C24.452 14.7925 24.452 13.2075 25.4184 12.2093C28.4445 9.08355 25.4801 3.94893 21.26 5.00673C19.9123 5.34454 18.5397 4.55207 18.1585 3.21605ZM11.5244 3.69631C12.2352 1.20572 15.7649 1.20572 16.4756 3.69631C17.1161 5.9405 19.4217 7.27166 21.6855 6.70422C24.1978 6.07448 25.9626 9.13124 24.1611 10.9921C22.5378 12.6688 22.5378 15.3312 24.1611 17.0079C25.9626 18.8688 24.1978 21.9255 21.6855 21.2958C19.4217 20.7283 17.1161 22.0595 16.4756 24.3037C15.7649 26.7943 12.2352 26.7943 11.5244 24.3037C10.884 22.0595 8.57835 20.7283 6.31459 21.2958C3.80229 21.9255 2.03747 18.8688 3.83899 17.0079C5.46228 15.3312 5.46228 12.6688 3.83899 10.9921C2.03747 9.13124 3.80229 6.07448 6.31459 6.70422C8.57835 7.27166 10.884 5.9405 11.5244 3.69631Z" fill="#FAFAFA"/>
</svg>
