<svg width="445" height="378" viewBox="0 0 445 378" fill="none" xmlns="http://www.w3.org/2000/svg">
<g filter="url(#filter0_b_3_915)">
<rect x="6.10352e-05" width="410.629" height="263.453" rx="10" fill="white" fill-opacity="0.05"/>
</g>
<g clip-path="url(#clip0_3_915)">
<path d="M85.0001 54H33.0001C30.2386 54 28.0001 56.2386 28.0001 59V62C28.0001 64.7614 30.2386 67 33.0001 67H85.0001C87.7615 67 90.0001 64.7614 90.0001 62V59C90.0001 56.2386 87.7615 54 85.0001 54Z" fill="white" fill-opacity="0.05"/>
<path d="M125 54H103C100.239 54 98.0001 56.2386 98.0001 59V62C98.0001 64.7614 100.239 67 103 67H125C127.761 67 130 64.7614 130 62V59C130 56.2386 127.761 54 125 54Z" fill="white" fill-opacity="0.05"/>
<path d="M151 54H143C140.239 54 138 56.2386 138 59V62C138 64.7614 140.239 67 143 67H151C153.761 67 156 64.7614 156 62V59C156 56.2386 153.761 54 151 54Z" fill="white" fill-opacity="0.05"/>
<path d="M36.0001 77H33.0001C30.2386 77 28.0001 79.2386 28.0001 82V85C28.0001 87.7614 30.2386 90 33.0001 90H36.0001C38.7615 90 41.0001 87.7614 41.0001 85V82C41.0001 79.2386 38.7615 77 36.0001 77Z" fill="white" fill-opacity="0.05"/>
<path d="M105 77H54.0001C51.2386 77 49.0001 79.2386 49.0001 82V85C49.0001 87.7614 51.2386 90 54.0001 90H105C107.761 90 110 87.7614 110 85V82C110 79.2386 107.761 77 105 77Z" fill="white" fill-opacity="0.05"/>
<path d="M162 77H123C120.239 77 118 79.2386 118 82V85C118 87.7614 120.239 90 123 90H162C164.761 90 167 87.7614 167 85V82C167 79.2386 164.761 77 162 77Z" fill="white" fill-opacity="0.05"/>
<path d="M91.0001 100H33.0001C30.2386 100 28.0001 102.239 28.0001 105V108C28.0001 110.761 30.2386 113 33.0001 113H91.0001C93.7615 113 96.0001 110.761 96.0001 108V105C96.0001 102.239 93.7615 100 91.0001 100Z" fill="white" fill-opacity="0.05"/>
<path d="M155 100H109C106.239 100 104 102.239 104 105V108C104 110.761 106.239 113 109 113H155C157.761 113 160 110.761 160 108V105C160 102.239 157.761 100 155 100Z" fill="white" fill-opacity="0.05"/>
<path d="M239 100H173C170.239 100 168 102.239 168 105V108C168 110.761 170.239 113 173 113H239C241.761 113 244 110.761 244 108V105C244 102.239 241.761 100 239 100Z" fill="white" fill-opacity="0.05"/>
<path d="M287 100H257C254.239 100 252 102.239 252 105V108C252 110.761 254.239 113 257 113H287C289.761 113 292 110.761 292 108V105C292 102.239 289.761 100 287 100Z" fill="white" fill-opacity="0.05"/>
<path d="M345 100H305C302.239 100 300 102.239 300 105V108C300 110.761 302.239 113 305 113H345C347.761 113 350 110.761 350 108V105C350 102.239 347.761 100 345 100Z" fill="white" fill-opacity="0.05"/>
<path d="M71.0001 123H33.0001C30.2386 123 28.0001 125.239 28.0001 128V131C28.0001 133.761 30.2386 136 33.0001 136H71.0001C73.7615 136 76.0001 133.761 76.0001 131V128C76.0001 125.239 73.7615 123 71.0001 123Z" fill="white" fill-opacity="0.05"/>
<path d="M151 123H89.0001C86.2386 123 84.0001 125.239 84.0001 128V131C84.0001 133.761 86.2386 136 89.0001 136H151C153.761 136 156 133.761 156 131V128C156 125.239 153.761 123 151 123Z" fill="white" fill-opacity="0.05"/>
<path d="M230 123H169C166.239 123 164 125.239 164 128V131C164 133.761 166.239 136 169 136H230C232.761 136 235 133.761 235 131V128C235 125.239 232.761 123 230 123Z" fill="white" fill-opacity="0.05"/>
<path d="M38.0001 146H33.0001C30.2386 146 28.0001 148.239 28.0001 151V154C28.0001 156.761 30.2386 159 33.0001 159H38.0001C40.7615 159 43.0001 156.761 43.0001 154V151C43.0001 148.239 40.7615 146 38.0001 146Z" fill="white" fill-opacity="0.05"/>
<path d="M125 146H56.0001C53.2386 146 51.0001 148.239 51.0001 151V154C51.0001 156.761 53.2386 159 56.0001 159H125C127.761 159 130 156.761 130 154V151C130 148.239 127.761 146 125 146Z" fill="white" fill-opacity="0.05"/>
<path d="M157 146H143C140.239 146 138 148.239 138 151V154C138 156.761 140.239 159 143 159H157C159.761 159 162 156.761 162 154V151C162 148.239 159.761 146 157 146Z" fill="white" fill-opacity="0.05"/>
<path d="M229 146H175C172.239 146 170 148.239 170 151V154C170 156.761 172.239 159 175 159H229C231.761 159 234 156.761 234 154V151C234 148.239 231.761 146 229 146Z" fill="white" fill-opacity="0.05"/>
<path d="M280 146H247C244.239 146 242 148.239 242 151V154C242 156.761 244.239 159 247 159H280C282.761 159 285 156.761 285 154V151C285 148.239 282.761 146 280 146Z" fill="white" fill-opacity="0.05"/>
<path d="M368 146H298C295.239 146 293 148.239 293 151V154C293 156.761 295.239 159 298 159H368C370.761 159 373 156.761 373 154V151C373 148.239 370.761 146 368 146Z" fill="white" fill-opacity="0.05"/>
<path d="M65.0001 169H33.0001C30.2386 169 28.0001 171.239 28.0001 174V177C28.0001 179.761 30.2386 182 33.0001 182H65.0001C67.7615 182 70.0001 179.761 70.0001 177V174C70.0001 171.239 67.7615 169 65.0001 169Z" fill="white" fill-opacity="0.05"/>
<path d="M79.0001 192H33.0001C30.2386 192 28.0001 194.239 28.0001 197V200C28.0001 202.761 30.2386 205 33.0001 205H79.0001C81.7615 205 84.0001 202.761 84.0001 200V197C84.0001 194.239 81.7615 192 79.0001 192Z" fill="white" fill-opacity="0.05"/>
<path d="M163 192H97.0001C94.2386 192 92.0001 194.239 92.0001 197V200C92.0001 202.761 94.2386 205 97.0001 205H163C165.761 205 168 202.761 168 200V197C168 194.239 165.761 192 163 192Z" fill="white" fill-opacity="0.05"/>
<path d="M194 192H181C178.239 192 176 194.239 176 197V200C176 202.761 178.239 205 181 205H194C196.761 205 199 202.761 199 200V197C199 194.239 196.761 192 194 192Z" fill="white" fill-opacity="0.05"/>
<path d="M93.0001 215H33.0001C30.2386 215 28.0001 217.239 28.0001 220V223C28.0001 225.761 30.2386 228 33.0001 228H93.0001C95.7615 228 98.0001 225.761 98.0001 223V220C98.0001 217.239 95.7615 215 93.0001 215Z" fill="white" fill-opacity="0.05"/>
<path d="M139 215H111C108.239 215 106 217.239 106 220V223C106 225.761 108.239 228 111 228H139C141.761 228 144 225.761 144 223V220C144 217.239 141.761 215 139 215Z" fill="white" fill-opacity="0.05"/>
<path d="M211 215H157C154.239 215 152 217.239 152 220V223C152 225.761 154.239 228 157 228H211C213.761 228 216 225.761 216 223V220C216 217.239 213.761 215 211 215Z" fill="white" fill-opacity="0.05"/>
<path d="M251 215H229C226.239 215 224 217.239 224 220V223C224 225.761 226.239 228 229 228H251C253.761 228 256 225.761 256 223V220C256 217.239 253.761 215 251 215Z" fill="white" fill-opacity="0.05"/>
<path d="M295 215H269C266.239 215 264 217.239 264 220V223C264 225.761 266.239 228 269 228H295C297.761 228 300 225.761 300 223V220C300 217.239 297.761 215 295 215Z" fill="white" fill-opacity="0.05"/>
<path d="M370 215H313C310.239 215 308 217.239 308 220V223C308 225.761 310.239 228 313 228H370C372.761 228 375 225.761 375 223V220C375 217.239 372.761 215 370 215Z" fill="white" fill-opacity="0.05"/>
</g>
<circle cx="27.6464" cy="28.4594" r="4.06563" fill="#FC165B"/>
<circle cx="40.6564" cy="28.4594" r="4.06563" fill="#FCA016"/>
<circle cx="53.6664" cy="28.4594" r="4.06563" fill="#16FCA9"/>
<g filter="url(#filter1_b_3_915)">
<rect x="299" y="232" width="145.551" height="145.551" rx="3" fill="#161629"/>
<rect x="299.5" y="232.5" width="144.551" height="144.551" rx="2.5" stroke="white" stroke-opacity="0.1"/>
</g>
<rect x="316.047" y="249.702" width="53.7622" height="9.83456" rx="3" fill="white" fill-opacity="0.05"/>
<rect x="316.047" y="271.994" width="17.5328" height="9.83456" rx="3" fill="white" fill-opacity="0.05"/>
<rect x="316.047" y="291.663" width="17.5328" height="9.83456" rx="3" fill="white" fill-opacity="0.05"/>
<rect x="316.047" y="311.332" width="17.5328" height="9.83456" rx="3" fill="white" fill-opacity="0.05"/>
<rect x="316.047" y="331.001" width="17.5328" height="9.83456" rx="3" fill="white" fill-opacity="0.05"/>
<rect x="316.047" y="350.67" width="17.5328" height="9.83456" rx="3" fill="white" fill-opacity="0.05"/>
<rect x="346.103" y="271.994" width="39.4487" height="9.83456" rx="3" fill="white" fill-opacity="0.05"/>
<rect x="346.206" y="291.663" width="44.5833" height="9.83456" rx="3" fill="white" fill-opacity="0.05"/>
<rect x="346.206" y="311.332" width="28.848" height="9.83456" rx="3" fill="white" fill-opacity="0.05"/>
<rect x="346.206" y="331.001" width="44.5833" height="9.83456" rx="3" fill="white" fill-opacity="0.05"/>
<rect x="346.103" y="350.67" width="39.4487" height="9.83456" rx="3" fill="white" fill-opacity="0.05"/>
<rect x="398.075" y="271.994" width="29.43" height="9.83456" rx="3" fill="white" fill-opacity="0.05"/>
<rect x="403.246" y="291.663" width="24.2586" height="9.83456" rx="3" fill="white" fill-opacity="0.05"/>
<rect x="387.511" y="311.332" width="39.9939" height="9.83456" rx="3" fill="white" fill-opacity="0.05"/>
<rect x="403.246" y="331.001" width="24.2586" height="9.83456" rx="3" fill="white" fill-opacity="0.05"/>
<rect x="398.075" y="350.67" width="29.43" height="9.83456" rx="3" fill="white" fill-opacity="0.05"/>
<path d="M299 300.276C296.5 300.276 294.5 302.276 294.5 304.776C294.5 307.276 296.5 309.276 299 309.276C301.5 309.276 303.5 307.276 303.5 304.776C303.5 302.276 301.5 300.276 299 300.276Z" fill="#6016FC"/>
<path d="M294.5 304.776H225.315C214.269 304.776 205.315 295.821 205.315 284.776V263.453M294.5 304.776C294.5 302.276 296.5 300.276 299 300.276C301.5 300.276 303.5 302.276 303.5 304.776C303.5 307.276 301.5 309.276 299 309.276C296.5 309.276 294.5 307.276 294.5 304.776Z" stroke="white" stroke-opacity="0.05" stroke-width="3"/>
<defs>
<filter id="filter0_b_3_915" x="-73.9999" y="-74" width="558.629" height="411.453" filterUnits="userSpaceOnUse" color-interpolation-filters="sRGB">
<feFlood flood-opacity="0" result="BackgroundImageFix"/>
<feGaussianBlur in="BackgroundImageFix" stdDeviation="37"/>
<feComposite in2="SourceAlpha" operator="in" result="effect1_backgroundBlur_3_915"/>
<feBlend mode="normal" in="SourceGraphic" in2="effect1_backgroundBlur_3_915" result="shape"/>
</filter>
<filter id="filter1_b_3_915" x="225" y="158" width="293.551" height="293.551" filterUnits="userSpaceOnUse" color-interpolation-filters="sRGB">
<feFlood flood-opacity="0" result="BackgroundImageFix"/>
<feGaussianBlur in="BackgroundImageFix" stdDeviation="37"/>
<feComposite in2="SourceAlpha" operator="in" result="effect1_backgroundBlur_3_915"/>
<feBlend mode="normal" in="SourceGraphic" in2="effect1_backgroundBlur_3_915" result="shape"/>
</filter>
<clipPath id="clip0_3_915">
<rect width="330" height="184" fill="white" transform="translate(28.0001 54)"/>
</clipPath>
</defs>
</svg>
