<svg width="169" height="31" viewBox="0 0 169 31" fill="none" xmlns="http://www.w3.org/2000/svg">
<path d="M32.4992 24V7.2H35.5712V14.184H43.1072V7.2H46.1792V24H43.1072V16.68H35.5712V24H32.4992ZM49.4445 24V7.2H55.6125C56.9565 7.2 58.0605 7.432 58.9245 7.896C59.8045 8.344 60.4605 8.96 60.8925 9.744C61.3245 10.512 61.5405 11.368 61.5405 12.312C61.5405 13.336 61.2685 14.272 60.7245 15.12C60.1965 15.968 59.3645 16.584 58.2285 16.968L61.7085 24H58.1805L55.0605 17.376H52.5165V24H49.4445ZM52.5165 15.12H55.4205C56.4445 15.12 57.1965 14.872 57.6765 14.376C58.1565 13.88 58.3965 13.224 58.3965 12.408C58.3965 11.608 58.1565 10.968 57.6765 10.488C57.2125 10.008 56.4525 9.768 55.3965 9.768H52.5165V15.12ZM70.1164 24V7.2H73.7644L79.1164 17.856L84.3964 7.2H88.0444V24H84.9724V12.408L80.2924 21.6H77.8684L73.1884 12.408V24H70.1164ZM95.3359 24.288C94.3119 24.288 93.4719 24.128 92.8159 23.808C92.1599 23.472 91.6719 23.032 91.3519 22.488C91.0319 21.944 90.8719 21.344 90.8719 20.688C90.8719 19.584 91.3039 18.688 92.1679 18C93.0319 17.312 94.3279 16.968 96.0559 16.968H99.0799V16.68C99.0799 15.864 98.8479 15.264 98.3839 14.88C97.9199 14.496 97.3439 14.304 96.6559 14.304C96.0319 14.304 95.4879 14.456 95.0239 14.76C94.5599 15.048 94.2719 15.48 94.1599 16.056H91.1599C91.2399 15.192 91.5279 14.44 92.0239 13.8C92.5359 13.16 93.1919 12.672 93.9919 12.336C94.7919 11.984 95.6879 11.808 96.6799 11.808C98.3759 11.808 99.7119 12.232 100.688 13.08C101.664 13.928 102.152 15.128 102.152 16.68V24H99.5359L99.2479 22.08C98.8959 22.72 98.3999 23.248 97.7599 23.664C97.1359 24.08 96.3279 24.288 95.3359 24.288ZM96.0319 21.888C96.9119 21.888 97.5919 21.6 98.0719 21.024C98.5679 20.448 98.8799 19.736 99.0079 18.888H96.3919C95.5759 18.888 94.9919 19.04 94.6399 19.344C94.2879 19.632 94.1119 19.992 94.1119 20.424C94.1119 20.888 94.2879 21.248 94.6399 21.504C94.9919 21.76 95.4559 21.888 96.0319 21.888ZM110.003 24.288C108.947 24.288 108.019 24.12 107.219 23.784C106.419 23.432 105.779 22.952 105.299 22.344C104.819 21.736 104.531 21.032 104.435 20.232H107.531C107.627 20.696 107.883 21.096 108.299 21.432C108.731 21.752 109.283 21.912 109.955 21.912C110.627 21.912 111.115 21.776 111.419 21.504C111.739 21.232 111.899 20.92 111.899 20.568C111.899 20.056 111.675 19.712 111.227 19.536C110.779 19.344 110.155 19.16 109.355 18.984C108.843 18.872 108.323 18.736 107.795 18.576C107.267 18.416 106.779 18.216 106.331 17.976C105.899 17.72 105.547 17.4 105.275 17.016C105.003 16.616 104.867 16.128 104.867 15.552C104.867 14.496 105.283 13.608 106.115 12.888C106.963 12.168 108.147 11.808 109.667 11.808C111.075 11.808 112.195 12.136 113.027 12.792C113.875 13.448 114.379 14.352 114.539 15.504H111.635C111.459 14.624 110.795 14.184 109.643 14.184C109.067 14.184 108.619 14.296 108.299 14.52C107.995 14.744 107.843 15.024 107.843 15.36C107.843 15.712 108.075 15.992 108.539 16.2C109.003 16.408 109.619 16.6 110.387 16.776C111.219 16.968 111.979 17.184 112.667 17.424C113.371 17.648 113.931 17.992 114.347 18.456C114.763 18.904 114.971 19.552 114.971 20.4C114.987 21.136 114.795 21.8 114.395 22.392C113.995 22.984 113.419 23.448 112.667 23.784C111.915 24.12 111.027 24.288 110.003 24.288ZM122.622 24C121.374 24 120.374 23.696 119.622 23.088C118.87 22.48 118.494 21.4 118.494 19.848V14.664H116.454V12.096H118.494L118.854 8.904H121.566V12.096H124.782V14.664H121.566V19.872C121.566 20.448 121.686 20.848 121.926 21.072C122.182 21.28 122.614 21.384 123.222 21.384H124.71V24H122.622ZM132.899 24.288C131.699 24.288 130.635 24.032 129.707 23.52C128.779 23.008 128.051 22.288 127.523 21.36C126.995 20.432 126.731 19.36 126.731 18.144C126.731 16.912 126.987 15.816 127.499 14.856C128.027 13.896 128.747 13.152 129.659 12.624C130.587 12.08 131.675 11.808 132.923 11.808C134.091 11.808 135.123 12.064 136.019 12.576C136.915 13.088 137.611 13.792 138.107 14.688C138.619 15.568 138.875 16.552 138.875 17.64C138.875 17.816 138.867 18 138.851 18.192C138.851 18.384 138.843 18.584 138.827 18.792H129.779C129.843 19.72 130.163 20.448 130.739 20.976C131.331 21.504 132.043 21.768 132.875 21.768C133.499 21.768 134.019 21.632 134.435 21.36C134.867 21.072 135.187 20.704 135.395 20.256H138.515C138.291 21.008 137.915 21.696 137.387 22.32C136.875 22.928 136.235 23.408 135.467 23.76C134.715 24.112 133.859 24.288 132.899 24.288ZM132.923 14.304C132.171 14.304 131.507 14.52 130.931 14.952C130.355 15.368 129.987 16.008 129.827 16.872H135.755C135.707 16.088 135.419 15.464 134.891 15C134.363 14.536 133.707 14.304 132.923 14.304ZM141.458 24V12.096H144.194L144.482 14.328C144.914 13.56 145.498 12.952 146.234 12.504C146.986 12.04 147.866 11.808 148.874 11.808V15.048H148.01C147.338 15.048 146.738 15.152 146.21 15.36C145.682 15.568 145.266 15.928 144.962 16.44C144.674 16.952 144.53 17.664 144.53 18.576V24H141.458ZM155.894 24.288C154.838 24.288 153.91 24.12 153.11 23.784C152.31 23.432 151.67 22.952 151.19 22.344C150.71 21.736 150.422 21.032 150.326 20.232H153.422C153.518 20.696 153.774 21.096 154.19 21.432C154.622 21.752 155.174 21.912 155.846 21.912C156.518 21.912 157.006 21.776 157.31 21.504C157.63 21.232 157.79 20.92 157.79 20.568C157.79 20.056 157.566 19.712 157.118 19.536C156.67 19.344 156.046 19.16 155.246 18.984C154.734 18.872 154.214 18.736 153.686 18.576C153.158 18.416 152.67 18.216 152.222 17.976C151.79 17.72 151.438 17.4 151.166 17.016C150.894 16.616 150.758 16.128 150.758 15.552C150.758 14.496 151.174 13.608 152.006 12.888C152.854 12.168 154.038 11.808 155.558 11.808C156.966 11.808 158.086 12.136 158.918 12.792C159.766 13.448 160.27 14.352 160.43 15.504H157.526C157.35 14.624 156.686 14.184 155.534 14.184C154.958 14.184 154.51 14.296 154.19 14.52C153.886 14.744 153.734 15.024 153.734 15.36C153.734 15.712 153.966 15.992 154.43 16.2C154.894 16.408 155.51 16.6 156.278 16.776C157.11 16.968 157.87 17.184 158.558 17.424C159.262 17.648 159.822 17.992 160.238 18.456C160.654 18.904 160.862 19.552 160.862 20.4C160.878 21.136 160.686 21.8 160.286 22.392C159.886 22.984 159.31 23.448 158.558 23.784C157.806 24.12 156.918 24.288 155.894 24.288ZM164.903 24.168C164.343 24.168 163.879 23.992 163.511 23.64C163.159 23.288 162.983 22.864 162.983 22.368C162.983 21.856 163.159 21.424 163.511 21.072C163.879 20.72 164.343 20.544 164.903 20.544C165.463 20.544 165.919 20.72 166.271 21.072C166.639 21.424 166.823 21.856 166.823 22.368C166.823 22.864 166.639 23.288 166.271 23.64C165.919 23.992 165.463 24.168 164.903 24.168Z" fill="white"/>
<path d="M18.9221 8.77922V6C18.9221 4.89543 18.0266 4 16.9221 4H3C1.89543 4 1 4.89543 1 6V19.9221C1 21.0266 1.89543 21.9221 3 21.9221H6.22727" stroke="white" stroke-width="2"/>
<rect x="7.07788" y="9.48047" width="15.9221" height="15.9221" rx="1" stroke="white" stroke-width="2"/>
</svg>
