<svg width="559" height="543" viewBox="0 0 559 543" fill="none" xmlns="http://www.w3.org/2000/svg">
<rect x="78" y="361" width="294" height="182" rx="10" fill="white" fill-opacity="0.1"/>
<circle cx="110" cy="391" r="6" fill="#FC165B"/>
<circle cx="129" cy="391" r="6" fill="#FCA016"/>
<circle cx="148" cy="391" r="6" fill="#16FCA9"/>
<path d="M106.896 423.752V422.232H114.76V423.752H106.896ZM120.994 423.752H114.434V422.232H120.994V423.752ZM117.842 417.928L122.378 422.992L117.842 428.056L116.594 426.992L118.442 424.968C118.703 424.691 118.932 424.459 119.13 424.272C119.327 424.08 119.551 423.907 119.802 423.752V422.232C119.551 422.077 119.327 421.907 119.13 421.72C118.932 421.528 118.703 421.293 118.442 421.016L116.594 418.992L117.842 417.928ZM135.205 428V419.552H136.749L136.885 420.648C137.237 420.216 137.653 419.888 138.133 419.664C138.613 419.44 139.107 419.328 139.613 419.328C140.403 419.328 140.992 419.549 141.381 419.992C141.776 420.429 141.973 421.045 141.973 421.84V428H140.181V422.728C140.181 422.237 140.152 421.843 140.093 421.544C140.035 421.245 139.917 421.029 139.741 420.896C139.571 420.763 139.315 420.696 138.973 420.696C138.701 420.696 138.443 420.755 138.197 420.872C137.952 420.989 137.728 421.144 137.525 421.336C137.323 421.523 137.147 421.723 136.997 421.936V428H135.205ZM148.183 419.328C149.01 419.328 149.706 419.512 150.271 419.88C150.836 420.248 151.263 420.763 151.551 421.424C151.844 422.085 151.991 422.864 151.991 423.76C151.991 424.651 151.842 425.432 151.543 426.104C151.25 426.771 150.818 427.291 150.247 427.664C149.682 428.032 148.991 428.216 148.175 428.216C147.359 428.216 146.666 428.037 146.095 427.68C145.53 427.317 145.098 426.803 144.799 426.136C144.506 425.469 144.359 424.683 144.359 423.776C144.359 422.896 144.506 422.123 144.799 421.456C145.098 420.789 145.532 420.269 146.103 419.896C146.674 419.517 147.367 419.328 148.183 419.328ZM148.183 420.72C147.538 420.72 147.052 420.968 146.727 421.464C146.402 421.955 146.239 422.725 146.239 423.776C146.239 424.821 146.399 425.592 146.719 426.088C147.044 426.584 147.53 426.832 148.175 426.832C148.82 426.832 149.303 426.584 149.623 426.088C149.948 425.592 150.111 424.816 150.111 423.76C150.111 422.72 149.951 421.955 149.631 421.464C149.311 420.968 148.828 420.72 148.183 420.72ZM156.185 415.984V420.584C156.526 420.168 156.926 419.856 157.385 419.648C157.843 419.435 158.315 419.328 158.801 419.328C159.595 419.328 160.187 419.549 160.577 419.992C160.966 420.429 161.161 421.045 161.161 421.84V428H159.369V422.12C159.369 421.613 159.273 421.251 159.081 421.032C158.889 420.808 158.579 420.696 158.153 420.696C157.886 420.696 157.63 420.757 157.385 420.88C157.145 420.997 156.921 421.152 156.713 421.344C156.51 421.536 156.334 421.741 156.185 421.96V428H154.393V416.176L156.185 415.984ZM164.067 428V426.72H165.307V420.824H164.067V419.552H166.674L167.003 421.512C167.317 420.803 167.707 420.264 168.171 419.896C168.64 419.523 169.243 419.336 169.979 419.336C170.229 419.336 170.453 419.357 170.651 419.4C170.853 419.437 171.053 419.488 171.251 419.552L170.715 421.088C170.544 421.04 170.384 421.005 170.235 420.984C170.085 420.957 169.92 420.944 169.739 420.944C169.125 420.944 168.595 421.173 168.147 421.632C167.704 422.091 167.355 422.741 167.099 423.584V426.72H168.803V428H164.067ZM169.667 422.664V420.584L169.891 419.552H171.251L170.947 422.664H169.667ZM179.404 419.328C179.724 419.328 180.012 419.397 180.268 419.536C180.524 419.675 180.724 419.917 180.868 420.264C181.018 420.611 181.092 421.096 181.092 421.72V428H179.5V421.968C179.5 421.525 179.468 421.208 179.404 421.016C179.346 420.824 179.188 420.728 178.932 420.728C178.73 420.728 178.524 420.792 178.316 420.92C178.108 421.043 177.898 421.256 177.684 421.56V428H176.236V421.968C176.236 421.525 176.204 421.208 176.14 421.016C176.082 420.824 175.924 420.728 175.668 420.728C175.46 420.728 175.252 420.792 175.044 420.92C174.842 421.043 174.634 421.256 174.42 421.56V428H172.82V419.552H174.172L174.292 420.464C174.532 420.128 174.794 419.856 175.076 419.648C175.359 419.435 175.7 419.328 176.1 419.328C176.42 419.328 176.711 419.408 176.972 419.568C177.234 419.728 177.426 420.008 177.548 420.408C177.783 420.088 178.05 419.829 178.348 419.632C178.647 419.429 178.999 419.328 179.404 419.328ZM189.63 425.928C189.63 426.259 189.681 426.501 189.782 426.656C189.883 426.805 190.046 426.917 190.27 426.992L189.87 428.208C189.454 428.16 189.097 428.045 188.798 427.864C188.499 427.683 188.273 427.408 188.118 427.04C187.809 427.429 187.417 427.723 186.942 427.92C186.467 428.117 185.961 428.216 185.422 428.216C184.569 428.216 183.891 427.976 183.39 427.496C182.894 427.011 182.646 426.376 182.646 425.592C182.646 424.701 182.993 424.016 183.686 423.536C184.379 423.056 185.371 422.816 186.662 422.816H187.87V422.264C187.87 421.72 187.705 421.328 187.374 421.088C187.049 420.848 186.587 420.728 185.99 420.728C185.713 420.728 185.377 420.765 184.982 420.84C184.587 420.909 184.174 421.019 183.742 421.168L183.302 419.904C183.83 419.707 184.347 419.563 184.854 419.472C185.361 419.376 185.83 419.328 186.262 419.328C187.393 419.328 188.235 419.579 188.79 420.08C189.35 420.581 189.63 421.275 189.63 422.16V425.928ZM185.966 426.896C186.329 426.896 186.683 426.8 187.03 426.608C187.377 426.416 187.657 426.147 187.87 425.8V423.936H186.878C186.035 423.936 185.433 424.077 185.07 424.36C184.707 424.637 184.526 425.021 184.526 425.512C184.526 425.96 184.646 426.304 184.886 426.544C185.131 426.779 185.491 426.896 185.966 426.896ZM195.84 426.84C196.4 426.84 196.845 426.741 197.176 426.544C197.506 426.341 197.672 426.064 197.672 425.712C197.672 425.483 197.624 425.288 197.528 425.128C197.432 424.963 197.24 424.813 196.952 424.68C196.664 424.541 196.226 424.397 195.64 424.248C195.085 424.104 194.597 423.933 194.176 423.736C193.76 423.539 193.437 423.283 193.208 422.968C192.978 422.653 192.864 422.248 192.864 421.752C192.864 421.267 193 420.843 193.272 420.48C193.544 420.117 193.933 419.835 194.44 419.632C194.952 419.429 195.552 419.328 196.24 419.328C196.949 419.328 197.568 419.421 198.096 419.608C198.624 419.795 199.074 420.027 199.448 420.304L198.696 421.432C198.365 421.213 198.002 421.035 197.608 420.896C197.218 420.757 196.778 420.688 196.288 420.688C195.717 420.688 195.306 420.773 195.056 420.944C194.81 421.115 194.688 421.341 194.688 421.624C194.688 421.832 194.749 422.008 194.872 422.152C195 422.291 195.218 422.421 195.528 422.544C195.837 422.661 196.274 422.8 196.84 422.96C197.389 423.109 197.866 423.285 198.272 423.488C198.682 423.691 199 423.96 199.224 424.296C199.453 424.627 199.568 425.059 199.568 425.592C199.568 426.2 199.392 426.699 199.04 427.088C198.693 427.472 198.234 427.757 197.664 427.944C197.098 428.125 196.49 428.216 195.84 428.216C195.056 428.216 194.378 428.104 193.808 427.88C193.237 427.651 192.757 427.365 192.368 427.024L193.32 425.936C193.65 426.203 194.029 426.421 194.456 426.592C194.882 426.757 195.344 426.84 195.84 426.84ZM209.418 427.552C209.108 427.749 208.738 427.909 208.306 428.032C207.874 428.155 207.423 428.216 206.954 428.216C205.972 428.216 205.226 427.963 204.714 427.456C204.207 426.944 203.954 426.272 203.954 425.44V420.856H202.074V419.552H203.954V417.664L205.746 417.448V419.552H208.594L208.394 420.856H205.746V425.424C205.746 425.877 205.858 426.216 206.082 426.44C206.311 426.659 206.684 426.768 207.202 426.768C207.511 426.768 207.796 426.731 208.058 426.656C208.319 426.581 208.556 426.485 208.77 426.368L209.418 427.552ZM213.443 424.352C213.481 424.928 213.603 425.4 213.811 425.768C214.019 426.131 214.291 426.397 214.627 426.568C214.969 426.739 215.342 426.824 215.747 426.824C216.163 426.824 216.547 426.76 216.899 426.632C217.251 426.504 217.606 426.323 217.963 426.088L218.739 427.16C218.345 427.48 217.883 427.736 217.355 427.928C216.827 428.12 216.262 428.216 215.659 428.216C214.785 428.216 214.043 428.029 213.435 427.656C212.833 427.283 212.374 426.763 212.059 426.096C211.745 425.429 211.587 424.659 211.587 423.784C211.587 422.936 211.742 422.179 212.051 421.512C212.361 420.84 212.803 420.309 213.379 419.92C213.955 419.525 214.643 419.328 215.443 419.328C216.195 419.328 216.841 419.499 217.379 419.84C217.923 420.181 218.342 420.667 218.635 421.296C218.934 421.92 219.083 422.672 219.083 423.552C219.083 423.696 219.078 423.84 219.067 423.984C219.062 424.123 219.054 424.245 219.043 424.352H213.443ZM215.459 420.656C214.899 420.656 214.435 420.856 214.067 421.256C213.705 421.656 213.494 422.28 213.435 423.128H217.347C217.331 422.333 217.161 421.723 216.835 421.296C216.515 420.869 216.057 420.656 215.459 420.656ZM221.629 428V426.72H222.869V420.824H221.629V419.552H224.237L224.565 421.512C224.88 420.803 225.269 420.264 225.733 419.896C226.202 419.523 226.805 419.336 227.541 419.336C227.792 419.336 228.016 419.357 228.213 419.4C228.416 419.437 228.616 419.488 228.813 419.552L228.277 421.088C228.106 421.04 227.946 421.005 227.797 420.984C227.648 420.957 227.482 420.944 227.301 420.944C226.688 420.944 226.157 421.173 225.709 421.632C225.266 422.091 224.917 422.741 224.661 423.584V426.72H226.365V428H221.629ZM227.229 422.664V420.584L227.453 419.552H228.813L228.509 422.664H227.229ZM234.215 426.84C234.775 426.84 235.22 426.741 235.551 426.544C235.881 426.341 236.047 426.064 236.047 425.712C236.047 425.483 235.999 425.288 235.903 425.128C235.807 424.963 235.615 424.813 235.327 424.68C235.039 424.541 234.601 424.397 234.015 424.248C233.46 424.104 232.972 423.933 232.551 423.736C232.135 423.539 231.812 423.283 231.583 422.968C231.353 422.653 231.239 422.248 231.239 421.752C231.239 421.267 231.375 420.843 231.647 420.48C231.919 420.117 232.308 419.835 232.815 419.632C233.327 419.429 233.927 419.328 234.615 419.328C235.324 419.328 235.943 419.421 236.471 419.608C236.999 419.795 237.449 420.027 237.823 420.304L237.071 421.432C236.74 421.213 236.377 421.035 235.983 420.896C235.593 420.757 235.153 420.688 234.663 420.688C234.092 420.688 233.681 420.773 233.431 420.944C233.185 421.115 233.063 421.341 233.063 421.624C233.063 421.832 233.124 422.008 233.247 422.152C233.375 422.291 233.593 422.421 233.903 422.544C234.212 422.661 234.649 422.8 235.215 422.96C235.764 423.109 236.241 423.285 236.647 423.488C237.057 423.691 237.375 423.96 237.599 424.296C237.828 424.627 237.943 425.059 237.943 425.592C237.943 426.2 237.767 426.699 237.415 427.088C237.068 427.472 236.609 427.757 236.039 427.944C235.473 428.125 234.865 428.216 234.215 428.216C233.431 428.216 232.753 428.104 232.183 427.88C231.612 427.651 231.132 427.365 230.743 427.024L231.695 425.936C232.025 426.203 232.404 426.421 232.831 426.592C233.257 426.757 233.719 426.84 234.215 426.84ZM242.561 426.664C242.561 426.376 242.627 426.117 242.761 425.888C242.899 425.653 243.086 425.467 243.321 425.328C243.555 425.189 243.817 425.12 244.105 425.12C244.398 425.12 244.662 425.189 244.897 425.328C245.131 425.467 245.315 425.653 245.449 425.888C245.587 426.117 245.657 426.376 245.657 426.664C245.657 426.947 245.587 427.208 245.449 427.448C245.315 427.683 245.131 427.869 244.897 428.008C244.662 428.147 244.398 428.216 244.105 428.216C243.817 428.216 243.555 428.147 243.321 428.008C243.086 427.869 242.899 427.683 242.761 427.448C242.627 427.208 242.561 426.947 242.561 426.664ZM254.402 426.744C254.797 426.744 255.165 426.677 255.506 426.544C255.848 426.405 256.173 426.227 256.482 426.008L257.314 427.16C256.946 427.475 256.498 427.731 255.97 427.928C255.448 428.12 254.906 428.216 254.346 428.216C253.482 428.216 252.744 428.035 252.13 427.672C251.517 427.304 251.048 426.789 250.722 426.128C250.397 425.467 250.234 424.696 250.234 423.816C250.234 422.957 250.397 422.192 250.722 421.52C251.053 420.843 251.528 420.309 252.146 419.92C252.765 419.525 253.509 419.328 254.378 419.328C254.954 419.328 255.485 419.413 255.97 419.584C256.456 419.755 256.901 420.008 257.306 420.344L256.482 421.472C256.152 421.243 255.813 421.069 255.466 420.952C255.125 420.829 254.773 420.768 254.41 420.768C253.744 420.768 253.197 421.013 252.77 421.504C252.349 421.995 252.138 422.765 252.138 423.816C252.138 424.52 252.234 425.088 252.426 425.52C252.624 425.947 252.893 426.259 253.234 426.456C253.576 426.648 253.965 426.744 254.402 426.744ZM263.308 419.328C264.135 419.328 264.831 419.512 265.396 419.88C265.961 420.248 266.388 420.763 266.676 421.424C266.969 422.085 267.116 422.864 267.116 423.76C267.116 424.651 266.967 425.432 266.668 426.104C266.375 426.771 265.943 427.291 265.372 427.664C264.807 428.032 264.116 428.216 263.3 428.216C262.484 428.216 261.791 428.037 261.22 427.68C260.655 427.317 260.223 426.803 259.924 426.136C259.631 425.469 259.484 424.683 259.484 423.776C259.484 422.896 259.631 422.123 259.924 421.456C260.223 420.789 260.657 420.269 261.228 419.896C261.799 419.517 262.492 419.328 263.308 419.328ZM263.308 420.72C262.663 420.72 262.177 420.968 261.852 421.464C261.527 421.955 261.364 422.725 261.364 423.776C261.364 424.821 261.524 425.592 261.844 426.088C262.169 426.584 262.655 426.832 263.3 426.832C263.945 426.832 264.428 426.584 264.748 426.088C265.073 425.592 265.236 424.816 265.236 423.76C265.236 422.72 265.076 421.955 264.756 421.464C264.436 420.968 263.953 420.72 263.308 420.72ZM275.342 419.328C275.662 419.328 275.95 419.397 276.206 419.536C276.462 419.675 276.662 419.917 276.806 420.264C276.955 420.611 277.03 421.096 277.03 421.72V428H275.438V421.968C275.438 421.525 275.406 421.208 275.342 421.016C275.283 420.824 275.126 420.728 274.87 420.728C274.667 420.728 274.462 420.792 274.254 420.92C274.046 421.043 273.835 421.256 273.622 421.56V428H272.174V421.968C272.174 421.525 272.142 421.208 272.078 421.016C272.019 420.824 271.862 420.728 271.606 420.728C271.398 420.728 271.19 420.792 270.982 420.92C270.779 421.043 270.571 421.256 270.358 421.56V428H268.758V419.552H270.11L270.23 420.464C270.47 420.128 270.731 419.856 271.014 419.648C271.296 419.435 271.638 419.328 272.038 419.328C272.358 419.328 272.648 419.408 272.91 419.568C273.171 419.728 273.363 420.008 273.486 420.408C273.72 420.088 273.987 419.829 274.286 419.632C274.584 419.429 274.936 419.328 275.342 419.328Z" fill="white"/>
<path d="M355.728 23.736C356.475 23.736 357.104 23.8347 357.616 24.032C358.133 24.224 358.613 24.5013 359.056 24.864L358.088 26.016C357.757 25.7387 357.403 25.5333 357.024 25.4C356.645 25.2667 356.243 25.2 355.816 25.2C355.267 25.2 354.76 25.3387 354.296 25.616C353.832 25.8933 353.459 26.344 353.176 26.968C352.899 27.592 352.76 28.424 352.76 29.464C352.76 30.4827 352.893 31.304 353.16 31.928C353.427 32.552 353.792 33.0053 354.256 33.288C354.72 33.5707 355.24 33.712 355.816 33.712C356.408 33.712 356.899 33.616 357.288 33.424C357.677 33.2267 358.021 33.0053 358.32 32.76L359.216 33.904C358.848 34.2613 358.381 34.5707 357.816 34.832C357.251 35.088 356.563 35.216 355.752 35.216C354.819 35.216 353.979 34.9973 353.232 34.56C352.491 34.1173 351.904 33.4693 351.472 32.616C351.045 31.7627 350.832 30.712 350.832 29.464C350.832 28.2267 351.053 27.184 351.496 26.336C351.939 25.4827 352.531 24.8373 353.272 24.4C354.013 23.9573 354.832 23.736 355.728 23.736ZM364.402 26.328C365.228 26.328 365.924 26.512 366.49 26.88C367.055 27.248 367.482 27.7627 367.77 28.424C368.063 29.0853 368.21 29.864 368.21 30.76C368.21 31.6507 368.06 32.432 367.762 33.104C367.468 33.7707 367.036 34.2907 366.466 34.664C365.9 35.032 365.21 35.216 364.394 35.216C363.578 35.216 362.884 35.0373 362.314 34.68C361.748 34.3173 361.316 33.8027 361.018 33.136C360.724 32.4693 360.578 31.6827 360.578 30.776C360.578 29.896 360.724 29.1227 361.018 28.456C361.316 27.7893 361.751 27.2693 362.322 26.896C362.892 26.5173 363.586 26.328 364.402 26.328ZM364.402 27.72C363.756 27.72 363.271 27.968 362.946 28.464C362.62 28.9547 362.458 29.7253 362.458 30.776C362.458 31.8213 362.618 32.592 362.938 33.088C363.263 33.584 363.748 33.832 364.394 33.832C365.039 33.832 365.522 33.584 365.842 33.088C366.167 32.592 366.33 31.816 366.33 30.76C366.33 29.72 366.17 28.9547 365.85 28.464C365.53 27.968 365.047 27.72 364.402 27.72ZM377.972 26.552L377.764 27.952H374.884V35H373.092V27.952H370.1V26.552H377.972ZM384.325 26.328C385.072 26.328 385.669 26.512 386.117 26.88C386.565 27.2427 386.891 27.7573 387.093 28.424C387.296 29.0853 387.397 29.864 387.397 30.76C387.397 31.6187 387.275 32.384 387.029 33.056C386.784 33.728 386.419 34.256 385.933 34.64C385.453 35.024 384.856 35.216 384.141 35.216C383.256 35.216 382.541 34.904 381.997 34.28V38.248L380.205 38.448V26.552H381.765L381.877 27.64C382.197 27.2027 382.568 26.8747 382.989 26.656C383.416 26.4373 383.861 26.328 384.325 26.328ZM383.829 27.712C383.429 27.712 383.077 27.832 382.773 28.072C382.469 28.312 382.211 28.5947 381.997 28.92V32.872C382.2 33.176 382.44 33.4107 382.717 33.576C383 33.736 383.317 33.816 383.669 33.816C384.272 33.816 384.731 33.5733 385.045 33.088C385.36 32.6027 385.517 31.8293 385.517 30.768C385.517 30.048 385.453 29.464 385.325 29.016C385.203 28.5627 385.016 28.232 384.765 28.024C384.52 27.816 384.208 27.712 383.829 27.712ZM397.191 26.552L394.279 35.032C394.06 35.672 393.78 36.2347 393.439 36.72C393.098 37.2107 392.66 37.6053 392.127 37.904C391.594 38.2027 390.932 38.3867 390.143 38.456L389.911 37.112C390.482 37.0213 390.935 36.888 391.271 36.712C391.612 36.5413 391.882 36.3147 392.079 36.032C392.282 35.7493 392.46 35.4053 392.615 35H392.007L389.159 26.552H391.063L393.191 33.752L395.351 26.552H397.191ZM406.065 26.552V33.608L405.209 35H399.849L398.913 33.608C399.142 33.4 399.334 33.144 399.489 32.84C399.643 32.536 399.771 32.1067 399.873 31.552C399.979 30.992 400.067 30.232 400.137 29.272L400.337 26.552H406.065ZM404.329 27.896H401.937L401.857 29.176C401.803 29.9067 401.742 30.52 401.673 31.016C401.603 31.512 401.513 31.9227 401.401 32.248C401.294 32.568 401.161 32.8347 401.001 33.048C400.841 33.256 400.646 33.4427 400.417 33.608H404.329V27.896ZM398.313 33.608H400.681L400.577 35H399.985L399.721 37.52H398.313V33.608ZM406.761 33.608V37.52H405.345L405.081 35H404.489L404.385 33.608H406.761ZM413.947 35V31.384H410.779V35H408.987V26.552H410.779V29.992H413.947V26.552H415.739V35H413.947ZM425.332 26.552V35H423.596V31.528C423.596 30.9147 423.62 30.336 423.668 29.792C423.722 29.2427 423.786 28.76 423.86 28.344L420.58 35H418.58V26.552H420.316V30.032C420.316 30.6133 420.292 31.1867 420.244 31.752C420.196 32.312 420.13 32.7893 420.044 33.184L423.3 26.552H425.332ZM428.238 35V26.552H430.03V29.896H431.526L433.734 26.552H435.598L432.95 30.464L435.958 35H433.934L431.486 31.208H430.03V35H428.238Z" fill="white"/>
<path d="M354.28 109.936H353.112V115H351.256V103.96H353.112V108.488H354.288L357.312 103.96H359.216L355.84 109.08L359.52 115H357.392L354.28 109.936ZM364.402 106.328C365.228 106.328 365.924 106.512 366.49 106.88C367.055 107.248 367.482 107.763 367.77 108.424C368.063 109.085 368.21 109.864 368.21 110.76C368.21 111.651 368.06 112.432 367.762 113.104C367.468 113.771 367.036 114.291 366.466 114.664C365.9 115.032 365.21 115.216 364.394 115.216C363.578 115.216 362.884 115.037 362.314 114.68C361.748 114.317 361.316 113.803 361.018 113.136C360.724 112.469 360.578 111.683 360.578 110.776C360.578 109.896 360.724 109.123 361.018 108.456C361.316 107.789 361.751 107.269 362.322 106.896C362.892 106.517 363.586 106.328 364.402 106.328ZM364.402 107.72C363.756 107.72 363.271 107.968 362.946 108.464C362.62 108.955 362.458 109.725 362.458 110.776C362.458 111.821 362.618 112.592 362.938 113.088C363.263 113.584 363.748 113.832 364.394 113.832C365.039 113.832 365.522 113.584 365.842 113.088C366.167 112.592 366.33 111.816 366.33 110.76C366.33 109.72 366.17 108.955 365.85 108.464C365.53 107.968 365.047 107.72 364.402 107.72ZM377.644 106.552L378.244 115H376.588L376.34 111.344C376.313 110.859 376.294 110.363 376.284 109.856C376.278 109.349 376.289 108.813 376.316 108.248H376.252L374.772 113.608H373.244L371.62 108.248H371.556C371.593 108.744 371.606 109.261 371.596 109.8C371.59 110.333 371.574 110.853 371.548 111.36L371.356 115H369.732L370.316 106.552H372.444L374.028 112.104L375.468 106.552H377.644ZM385.173 115V107.944H381.989V115H380.205V106.552H386.957V115H385.173ZM396.255 112.928C396.255 113.259 396.306 113.501 396.407 113.656C396.508 113.805 396.671 113.917 396.895 113.992L396.495 115.208C396.079 115.16 395.722 115.045 395.423 114.864C395.124 114.683 394.898 114.408 394.743 114.04C394.434 114.429 394.042 114.723 393.567 114.92C393.092 115.117 392.586 115.216 392.047 115.216C391.194 115.216 390.516 114.976 390.015 114.496C389.519 114.011 389.271 113.376 389.271 112.592C389.271 111.701 389.618 111.016 390.311 110.536C391.004 110.056 391.996 109.816 393.287 109.816H394.495V109.264C394.495 108.72 394.33 108.328 393.999 108.088C393.674 107.848 393.212 107.728 392.615 107.728C392.338 107.728 392.002 107.765 391.607 107.84C391.212 107.909 390.799 108.019 390.367 108.168L389.927 106.904C390.455 106.707 390.972 106.563 391.479 106.472C391.986 106.376 392.455 106.328 392.887 106.328C394.018 106.328 394.86 106.579 395.415 107.08C395.975 107.581 396.255 108.275 396.255 109.16V112.928ZM392.591 113.896C392.954 113.896 393.308 113.8 393.655 113.608C394.002 113.416 394.282 113.147 394.495 112.8V110.936H393.503C392.66 110.936 392.058 111.077 391.695 111.36C391.332 111.637 391.151 112.021 391.151 112.512C391.151 112.96 391.271 113.304 391.511 113.544C391.756 113.779 392.116 113.896 392.591 113.896ZM404.353 115V111.384H401.185V115H399.393V106.552H401.185V109.992H404.353V106.552H406.145V115H404.353ZM415.739 106.552V115H414.003V111.528C414.003 110.915 414.027 110.336 414.075 109.792C414.128 109.243 414.192 108.76 414.267 108.344L410.987 115H408.987V106.552H410.723V110.032C410.723 110.613 410.699 111.187 410.651 111.752C410.603 112.312 410.536 112.789 410.451 113.184L413.707 106.552H415.739ZM423.372 115V107.824H421.94C421.364 107.824 420.935 107.933 420.652 108.152C420.37 108.371 420.228 108.712 420.228 109.176C420.228 109.667 420.362 110.027 420.628 110.256C420.9 110.485 421.335 110.6 421.932 110.6H423.628V111.848H421.22L420.092 111.56C419.527 111.341 419.095 111.035 418.796 110.64C418.503 110.24 418.356 109.76 418.356 109.2C418.356 108.363 418.666 107.712 419.284 107.248C419.908 106.784 420.804 106.552 421.972 106.552H425.164V115H423.372ZM417.796 115L419.964 111.224L421.604 111.624L419.756 115H417.796Z" fill="white"/>
<path d="M112.385 476H109.615C107.066 476 105 478.066 105 480.615V483.385C105 485.934 107.066 488 109.615 488H112.385C114.934 488 117 485.934 117 483.385V480.615C117 478.066 114.934 476 112.385 476Z" fill="white" fill-opacity="0.05"/>
<path d="M176.328 476H128.672C126.092 476 124 478.066 124 480.615V483.385C124 485.934 126.092 488 128.672 488H176.328C178.908 488 181 485.934 181 483.385V480.615C181 478.066 178.908 476 176.328 476Z" fill="white" fill-opacity="0.05"/>
<path d="M229.306 476H192.694C190.102 476 188 478.066 188 480.615V483.385C188 485.934 190.102 488 192.694 488H229.306C231.898 488 234 485.934 234 483.385V480.615C234 478.066 231.898 476 229.306 476Z" fill="white" fill-opacity="0.05"/>
<path d="M163.368 500H109.632C107.074 500 105 502.066 105 504.615V507.385C105 509.934 107.074 512 109.632 512H163.368C165.926 512 168 509.934 168 507.385V504.615C168 502.066 165.926 500 163.368 500Z" fill="white" fill-opacity="0.05"/>
<path d="M222.357 500H179.643C177.079 500 175 502.066 175 504.615V507.385C175 509.934 177.079 512 179.643 512H222.357C224.921 512 227 509.934 227 507.385V504.615C227 502.066 224.921 500 222.357 500Z" fill="white" fill-opacity="0.05"/>
<path d="M300.395 500H239.605C237.062 500 235 502.066 235 504.615V507.385C235 509.934 237.062 512 239.605 512H300.395C302.938 512 305 509.934 305 507.385V504.615C305 502.066 302.938 500 300.395 500Z" fill="white" fill-opacity="0.05"/>
<path d="M144.417 452H109.583C107.052 452 105 454.066 105 456.615V459.385C105 461.934 107.052 464 109.583 464H144.417C146.948 464 149 461.934 149 459.385V456.615C149 454.066 146.948 452 144.417 452Z" fill="white" fill-opacity="0.05"/>
<path d="M218.417 452H161.583C159.052 452 157 454.066 157 456.615V459.385C157 461.934 159.052 464 161.583 464H218.417C220.948 464 223 461.934 223 459.385V456.615C223 454.066 220.948 452 218.417 452Z" fill="white" fill-opacity="0.05"/>
<path d="M292.352 452H235.648C233.081 452 231 454.066 231 456.615V459.385C231 461.934 233.081 464 235.648 464H292.352C294.919 464 297 461.934 297 459.385V456.615C297 454.066 294.919 452 292.352 452Z" fill="white" fill-opacity="0.05"/>
<rect x="116.265" y="12" width="1.86023" height="488.311" fill="url(#paint0_linear_3_796)"/>
<rect x="68.8286" y="12" width="1.86023" height="488.311" fill="url(#paint1_linear_3_796)"/>
<rect x="162.77" y="12" width="1.86023" height="488.311" fill="url(#paint2_linear_3_796)"/>
<rect x="209.276" y="12" width="1.86023" height="488.311" fill="url(#paint3_linear_3_796)"/>
<rect x="255.782" y="12" width="1.86023" height="488.311" fill="url(#paint4_linear_3_796)"/>
<rect x="302.288" y="12" width="1.86023" height="488.311" fill="url(#paint5_linear_3_796)"/>
<rect x="348.794" y="12" width="1.86023" height="488.311" fill="url(#paint6_linear_3_796)"/>
<rect x="395.3" y="12" width="1.86023" height="488.311" fill="url(#paint7_linear_3_796)"/>
<rect x="441.805" y="12" width="1.86023" height="488.311" fill="url(#paint8_linear_3_796)"/>
<rect x="488.311" y="12" width="1.86023" height="488.311" fill="url(#paint9_linear_3_796)"/>
<rect x="559" y="92.92" width="1.86023" height="559" transform="rotate(90 559 92.92)" fill="url(#paint10_linear_3_796)"/>
<rect x="559" y="45.4841" width="1.86023" height="559" transform="rotate(90 559 45.4841)" fill="url(#paint11_linear_3_796)"/>
<rect x="559" y="139.426" width="1.86023" height="559" transform="rotate(90 559 139.426)" fill="url(#paint12_linear_3_796)"/>
<rect x="559" y="185.932" width="1.86023" height="559" transform="rotate(90 559 185.932)" fill="url(#paint13_linear_3_796)"/>
<rect x="559" y="232.438" width="1.86023" height="559" transform="rotate(90 559 232.438)" fill="url(#paint14_linear_3_796)"/>
<rect x="559" y="278.943" width="1.86023" height="559" transform="rotate(90 559 278.943)" fill="url(#paint15_linear_3_796)"/>
<rect x="559" y="325.449" width="1.86023" height="559" transform="rotate(90 559 325.449)" fill="url(#paint16_linear_3_796)"/>
<rect x="559" y="371.955" width="1.86023" height="559" transform="rotate(90 559 371.955)" fill="url(#paint17_linear_3_796)"/>
<rect x="559" y="418.461" width="1.86023" height="559" transform="rotate(90 559 418.461)" fill="url(#paint18_linear_3_796)"/>
<rect x="559" y="464.967" width="1.86023" height="559" transform="rotate(90 559 464.967)" fill="url(#paint19_linear_3_796)"/>
<circle cx="273" cy="228" r="65" fill="white" fill-opacity="0.05"/>
<circle cx="273" cy="228" r="53" fill="white" fill-opacity="0.1"/>
<circle cx="273" cy="228" r="37" fill="white" fill-opacity="0.15"/>
<path d="M273 244.667C282.205 244.667 289.667 237.205 289.667 228C289.667 218.795 282.205 211.333 273 211.333C263.795 211.333 256.333 218.795 256.333 228C256.333 237.205 263.795 244.667 273 244.667Z" stroke="white" stroke-width="2" stroke-linecap="round" stroke-linejoin="round"/>
<path d="M256.333 228H289.667" stroke="white" stroke-width="2" stroke-linecap="round" stroke-linejoin="round"/>
<path d="M273 211.333C277.169 215.897 279.538 221.82 279.667 228C279.538 234.18 277.169 240.103 273 244.667C268.831 240.103 266.462 234.18 266.333 228C266.462 221.82 268.831 215.897 273 211.333V211.333Z" stroke="white" stroke-width="2" stroke-linecap="round" stroke-linejoin="round"/>
<rect x="310" width="198" height="60" rx="10" fill="white" fill-opacity="0.05"/>
<rect x="310.5" y="0.5" width="197" height="59" rx="9.5" stroke="white" stroke-opacity="0.1"/>
<rect x="310" y="80" width="198" height="60" rx="10" fill="white" fill-opacity="0.05"/>
<rect x="310.5" y="80.5" width="197" height="59" rx="9.5" stroke="white" stroke-opacity="0.1"/>
<circle cx="8" cy="8" r="8" transform="matrix(1 0 0 -1 330 38)" fill="#66FFA3"/>
<circle cx="8" cy="8" r="8" transform="matrix(1 0 0 -1 330 118)" fill="white" fill-opacity="0.4"/>
<path d="M216.5 356.5C214 356.5 212 358.5 212 361C212 363.5 214 365.5 216.5 365.5C219 365.5 221 363.5 221 361C221 358.5 219 356.5 216.5 356.5Z" fill="#6016FC"/>
<path d="M216.5 356.5V347C216.5 335.954 225.454 327 236.5 327H253C264.046 327 273 318.046 273 307V293M212 361C212 358.5 214 356.5 216.5 356.5C219 356.5 221 358.5 221 361C221 363.5 219 365.5 216.5 365.5C214 365.5 212 363.5 212 361Z" stroke="white" stroke-opacity="0.1" stroke-width="3"/>
<path d="M310 105.5C307.5 105.5 305.5 107.5 305.5 110C305.5 112.5 307.5 114.5 310 114.5C312.5 114.5 314.5 112.5 314.5 110C314.5 107.5 312.5 105.5 310 105.5Z" fill="#6016FC"/>
<path d="M305.5 110C305.5 107.5 307.5 105.5 310 105.5C312.5 105.5 314.5 107.5 314.5 110C314.5 112.5 312.5 114.5 310 114.5C307.5 114.5 305.5 112.5 305.5 110ZM305.5 110H293C281.954 110 273 118.954 273 130V163" stroke="white" stroke-opacity="0.1" stroke-width="3"/>
<defs>
<linearGradient id="paint0_linear_3_796" x1="117.195" y1="12" x2="117.195" y2="500.311" gradientUnits="userSpaceOnUse">
<stop stop-color="white" stop-opacity="0"/>
<stop offset="0.479167" stop-color="white" stop-opacity="0.02"/>
<stop offset="0.994792" stop-color="white" stop-opacity="0"/>
</linearGradient>
<linearGradient id="paint1_linear_3_796" x1="69.7587" y1="12" x2="69.7587" y2="500.311" gradientUnits="userSpaceOnUse">
<stop stop-color="white" stop-opacity="0"/>
<stop offset="0.479167" stop-color="white" stop-opacity="0.02"/>
<stop offset="0.994792" stop-color="white" stop-opacity="0"/>
</linearGradient>
<linearGradient id="paint2_linear_3_796" x1="163.7" y1="12" x2="163.7" y2="500.311" gradientUnits="userSpaceOnUse">
<stop stop-color="white" stop-opacity="0"/>
<stop offset="0.479167" stop-color="white" stop-opacity="0.02"/>
<stop offset="0.994792" stop-color="white" stop-opacity="0"/>
</linearGradient>
<linearGradient id="paint3_linear_3_796" x1="210.206" y1="12" x2="210.206" y2="500.311" gradientUnits="userSpaceOnUse">
<stop stop-color="white" stop-opacity="0"/>
<stop offset="0.479167" stop-color="white" stop-opacity="0.02"/>
<stop offset="0.994792" stop-color="white" stop-opacity="0"/>
</linearGradient>
<linearGradient id="paint4_linear_3_796" x1="256.712" y1="12" x2="256.712" y2="500.311" gradientUnits="userSpaceOnUse">
<stop stop-color="white" stop-opacity="0"/>
<stop offset="0.479167" stop-color="white" stop-opacity="0.02"/>
<stop offset="0.994792" stop-color="white" stop-opacity="0"/>
</linearGradient>
<linearGradient id="paint5_linear_3_796" x1="303.218" y1="12" x2="303.218" y2="500.311" gradientUnits="userSpaceOnUse">
<stop stop-color="white" stop-opacity="0"/>
<stop offset="0.479167" stop-color="white" stop-opacity="0.02"/>
<stop offset="0.994792" stop-color="white" stop-opacity="0"/>
</linearGradient>
<linearGradient id="paint6_linear_3_796" x1="349.724" y1="12" x2="349.724" y2="500.311" gradientUnits="userSpaceOnUse">
<stop stop-color="white" stop-opacity="0"/>
<stop offset="0.479167" stop-color="white" stop-opacity="0.02"/>
<stop offset="0.994792" stop-color="white" stop-opacity="0"/>
</linearGradient>
<linearGradient id="paint7_linear_3_796" x1="396.23" y1="12" x2="396.23" y2="500.311" gradientUnits="userSpaceOnUse">
<stop stop-color="white" stop-opacity="0"/>
<stop offset="0.479167" stop-color="white" stop-opacity="0.02"/>
<stop offset="0.994792" stop-color="white" stop-opacity="0"/>
</linearGradient>
<linearGradient id="paint8_linear_3_796" x1="442.736" y1="12" x2="442.736" y2="500.311" gradientUnits="userSpaceOnUse">
<stop stop-color="white" stop-opacity="0"/>
<stop offset="0.479167" stop-color="white" stop-opacity="0.02"/>
<stop offset="0.994792" stop-color="white" stop-opacity="0"/>
</linearGradient>
<linearGradient id="paint9_linear_3_796" x1="489.241" y1="12" x2="489.241" y2="500.311" gradientUnits="userSpaceOnUse">
<stop stop-color="white" stop-opacity="0"/>
<stop offset="0.479167" stop-color="white" stop-opacity="0.02"/>
<stop offset="0.994792" stop-color="white" stop-opacity="0"/>
</linearGradient>
<linearGradient id="paint10_linear_3_796" x1="559.93" y1="92.92" x2="559.93" y2="651.92" gradientUnits="userSpaceOnUse">
<stop stop-color="white" stop-opacity="0"/>
<stop offset="0.479167" stop-color="white" stop-opacity="0.02"/>
<stop offset="0.994792" stop-color="white" stop-opacity="0"/>
</linearGradient>
<linearGradient id="paint11_linear_3_796" x1="559.93" y1="45.4841" x2="559.93" y2="604.484" gradientUnits="userSpaceOnUse">
<stop stop-color="white" stop-opacity="0"/>
<stop offset="0.479167" stop-color="white" stop-opacity="0.02"/>
<stop offset="0.994792" stop-color="white" stop-opacity="0"/>
</linearGradient>
<linearGradient id="paint12_linear_3_796" x1="559.93" y1="139.426" x2="559.93" y2="698.426" gradientUnits="userSpaceOnUse">
<stop stop-color="white" stop-opacity="0"/>
<stop offset="0.479167" stop-color="white" stop-opacity="0.02"/>
<stop offset="0.994792" stop-color="white" stop-opacity="0"/>
</linearGradient>
<linearGradient id="paint13_linear_3_796" x1="559.93" y1="185.932" x2="559.93" y2="744.932" gradientUnits="userSpaceOnUse">
<stop stop-color="white" stop-opacity="0"/>
<stop offset="0.479167" stop-color="white" stop-opacity="0.02"/>
<stop offset="0.994792" stop-color="white" stop-opacity="0"/>
</linearGradient>
<linearGradient id="paint14_linear_3_796" x1="559.93" y1="232.438" x2="559.93" y2="791.438" gradientUnits="userSpaceOnUse">
<stop stop-color="white" stop-opacity="0"/>
<stop offset="0.479167" stop-color="white" stop-opacity="0.02"/>
<stop offset="0.994792" stop-color="white" stop-opacity="0"/>
</linearGradient>
<linearGradient id="paint15_linear_3_796" x1="559.93" y1="278.943" x2="559.93" y2="837.943" gradientUnits="userSpaceOnUse">
<stop stop-color="white" stop-opacity="0"/>
<stop offset="0.479167" stop-color="white" stop-opacity="0.02"/>
<stop offset="0.994792" stop-color="white" stop-opacity="0"/>
</linearGradient>
<linearGradient id="paint16_linear_3_796" x1="559.93" y1="325.449" x2="559.93" y2="884.449" gradientUnits="userSpaceOnUse">
<stop stop-color="white" stop-opacity="0"/>
<stop offset="0.479167" stop-color="white" stop-opacity="0.02"/>
<stop offset="0.994792" stop-color="white" stop-opacity="0"/>
</linearGradient>
<linearGradient id="paint17_linear_3_796" x1="559.93" y1="371.955" x2="559.93" y2="930.955" gradientUnits="userSpaceOnUse">
<stop stop-color="white" stop-opacity="0"/>
<stop offset="0.479167" stop-color="white" stop-opacity="0.02"/>
<stop offset="0.994792" stop-color="white" stop-opacity="0"/>
</linearGradient>
<linearGradient id="paint18_linear_3_796" x1="559.93" y1="418.461" x2="559.93" y2="977.461" gradientUnits="userSpaceOnUse">
<stop stop-color="white" stop-opacity="0"/>
<stop offset="0.479167" stop-color="white" stop-opacity="0.02"/>
<stop offset="0.994792" stop-color="white" stop-opacity="0"/>
</linearGradient>
<linearGradient id="paint19_linear_3_796" x1="559.93" y1="464.967" x2="559.93" y2="1023.97" gradientUnits="userSpaceOnUse">
<stop stop-color="white" stop-opacity="0"/>
<stop offset="0.479167" stop-color="white" stop-opacity="0.02"/>
<stop offset="0.994792" stop-color="white" stop-opacity="0"/>
</linearGradient>
</defs>
</svg>
